<?xml version="1.0" encoding="UTF-8"?>
<svg id="Layer_2" data-name="Layer 2" xmlns="http://www.w3.org/2000/svg" xmlns:xlink="http://www.w3.org/1999/xlink" viewBox="0 0 46.23 50.9">
  <defs>
    <style>
      .cls-1 {
        fill: url(#linear-gradient);
      }

      .cls-1, .cls-2 {
        stroke-width: 0px;
      }

      .cls-2 {
        fill: url(#linear-gradient-2);
      }
    </style>
    <linearGradient id="linear-gradient" x1="-2.63" y1="19.79" x2="26.22" y2="19.79" gradientTransform="translate(0 51.61) scale(1 -1)" gradientUnits="userSpaceOnUse">
      <stop offset="0" stop-color="#64bc47"/>
      <stop offset="1" stop-color="#a6d055"/>
    </linearGradient>
    <linearGradient id="linear-gradient-2" x1="20.17" y1="27.34" x2="46.37" y2="27.34" gradientTransform="translate(0 51.61) scale(1 -1)" gradientUnits="userSpaceOnUse">
      <stop offset="0" stop-color="#0d73bb"/>
      <stop offset="1" stop-color="#1d9bd7"/>
    </linearGradient>
  </defs>
  <g id="Layer_1-2" data-name="Layer 1">
    <g>
      <path class="cls-1" d="m25.11,18.67c-3.01,3.1-12.71-1.98-21.16-5.69-1.34-.59-2.59-.04-3.14.54-1.5,1.57-.43,3.26-.43,3.26l19.04,32.3s.92,1.81,3.12,1.81c1.02,0,2.33-.41,3.13-1.81l.32-.54v-31.96c0,.94-.41,1.6-.87,2.08h0Z"/>
      <path class="cls-2" d="m44.14,6.8C39.37,1.35,27.82-1.11,23.53.47c-3.31,1.21-5.45,4.72-.87,10.43,2.41,3,3.32,4.37,3.32,5.7v31.95l18.81-31.91c2.31-4.35,1.65-7.22-.64-9.83h0Z"/>
    </g>
  </g>
</svg>